# xmcd CD database file
#
# Track frame offsets:
#	150
#	14214
#	26959
#	40559
#	51427
#	61309
#	73506
#	81238
#	109292
#	123417
#	135797
#	147477
#	160845
#	172405
#	185436
#	199881
#	210393
#	225201
#	237226
#	251247
#	263792
#	274149
#	294446
#	307166
#
# Disc length: 4438 seconds
#
# Revision: 3
# Processed by: cddbd v1.5.2PL0 Copyright (c) Steve Scherf et al.
# Submitted via: CDex 1.81
#
DISCID=6e115418
DTITLE=Various Artist - JazzPiano History - [CD 08) - Swing
DYEAR=1900
DGENRE=Jazz
TTITLE0=Teddy Wilson - Somebody Loves Me
TTITLE1=Teddy Wilson and Benny Goodman Trio - After You've Gone
TTITLE2=Teddy Wilson - Liza (All The Clods'll Roll Away)
TTITLE3=Benny Goodman Quartet - Handful Of Keys
TTITLE4=Teddy Wilson - Tiger Rag
TTITLE5=Teddy Wilson - China Boy
TTITLE6=Teddy Wilson Trio - Fine And Dandy
TTITLE7=Teddy Wilson and Benny Goodman Quartet - Avalon
TTITLE8=Earl Hines - Rosetta
TTITLE9=Earl Hines and His Orchestra - Boogie Woogie On St. Luois Blues
TTITLE10=Earl Hines - Child Of A Disordered Brain
TTITLE11=Earl Hines - Blues In Thirds
TTITLE12=Earl Hines - My Melancoly Baby
TTITLE13=Earl Hines Trio - Honeysuckle Rose
TTITLE14=Earl Hines Trio - Fine and Dandy
TTITLE15=Art Tatum - Tiger Rag
TTITLE16=Art Tatum - Sophisticated Lady
TTITLE17=Art Tatum - (If Would Do) Anything For You
TTITLE18=Art Tatum - Humoresque
TTITLE19=Art Tatum - Get Happy
TTITLE20=Art Tatum Trio - I Got Rhythm
TTITLE21=Art Tatum - The Man I Love
TTITLE22=Art Tatum - Makin' Whoopee
TTITLE23=Art Tatum, Benny Carter, Luois Bellson - Blues in B-Flat
EXTD=
EXTT0=
EXTT1=
EXTT2=
EXTT3=
EXTT4=
EXTT5=
EXTT6=
EXTT7=
EXTT8=
EXTT9=
EXTT10=
EXTT11=
EXTT12=
EXTT13=
EXTT14=
EXTT15=
EXTT16=
EXTT17=
EXTT18=
EXTT19=
EXTT20=
EXTT21=
EXTT22=
EXTT23=
PLAYORDER=
